<?xml version="1.0" encoding="UTF-8"?>
<svg xmlns="http://www.w3.org/2000/svg" id="Layer_1" data-name="Layer 1" viewBox="0 0 24 24">
  <path d="M12,14.685c-1.149,0-2.085,.985-2.085,2.196v6.076c.653,.027,1.348,.043,2.085,.043s1.432-.016,2.085-.043v-6.076c0-1.211-.936-2.196-2.085-2.196Z"/>
  <path d="M21.085,6.758c-.07-.149-.176-.279-.308-.377-.185-.138-.374-.278-.564-.418V3.505c0-.829-.672-1.5-1.5-1.5s-1.5,.671-1.5,1.5v.315c-2.274-1.56-4.371-2.82-5.213-2.82-1.299,0-5.49,2.927-8.778,5.382-.133,.1-.24,.231-.31,.383-.047,.102-1.154,2.562-1.154,7.578,0,2.165,.202,5.37,.432,6.858,.059,.38,.33,.692,.698,.804,.098,.03,1.842,.548,5.027,.825v-5.948c0-2.314,1.832-4.196,4.085-4.196s4.085,1.882,4.085,4.196v5.948c3.185-.276,4.928-.795,5.025-.824,.367-.112,.639-.424,.697-.804,.231-1.498,.435-4.703,.435-6.858,0-5.059-1.11-7.483-1.157-7.584Z"/>
</svg>
